<?xml version="1.0" encoding="UTF-8"?>
<!DOCTYPE svg PUBLIC "-//W3C//DTD SVG 1.1//EN" "http://www.w3.org/Graphics/SVG/1.1/DTD/svg11.dtd">
<svg xmlns="http://www.w3.org/2000/svg" xml:space="preserve" width="157.483mm" height="91.44mm" version="1.1" style="shape-rendering:geometricPrecision; text-rendering:geometricPrecision; image-rendering:optimizeQuality; fill-rule:evenodd; clip-rule:evenodd"
viewBox="0 0 4836.84 2808.44"
 xmlns:xlink="http://www.w3.org/1999/xlink"
 xmlns:xodm="http://www.corel.com/coreldraw/odm/2003">
 <defs>
  <style type="text/css">
   <![CDATA[
    .fil0 {fill:white}
   ]]>
  </style>
 </defs>
 <g id="Capa_x0020_1">
  <metadata id="CorelCorpID_0Corel-Layer"/>
  <path class="fil0" d="M2986.04 1567.17l0 -186.23c0,-59.74 48.86,-108.6 108.6,-108.6l1415.39 0c59.74,0 108.6,48.89 108.6,108.6l0 186.23c0,59.71 -48.9,108.6 -108.6,108.6l-1415.39 0c-59.71,0 -108.6,-48.86 -108.6,-108.6z"/>
  <path class="fil0" d="M2986.04 294.83l0 -186.23c0,-59.74 48.86,-108.6 108.6,-108.6l1633.6 0c59.74,0 108.6,48.91 108.6,108.6l0 186.23c0,59.69 -48.91,108.6 -108.6,108.6l-1633.6 0c-59.69,0 -108.6,-48.86 -108.6,-108.6z"/>
  <path class="fil0" d="M2539.05 0l-125.68 0c-36.78,0 -72.99,16.05 -94.71,48.27l-869.54 1289.36c-32.18,47.72 -32.16,47.7 -64.34,0l-869.56 -1289.36c-21.72,-32.24 -57.93,-48.27 -94.71,-48.27l-125.68 0 -186.19 0c-59.74,0 -108.62,48.88 -108.62,108.62l0 2591.2c0,59.74 48.88,108.62 108.62,108.62l186.19 0c59.63,0 108.62,-48.98 108.62,-108.62l0 -2014.6c0,-28.55 29.69,-36.76 43.89,-15.69l879.35 1303.89c20.84,30.93 55.29,47.63 90.25,47.7 34.97,-0.07 69.42,-16.77 90.26,-47.7l879.35 -1303.89c14.2,-21.07 43.89,-12.86 43.89,15.69l0 2014.6c0,59.63 48.99,108.62 108.62,108.62l186.19 0c59.74,0 108.62,-48.88 108.62,-108.62l0 -2591.2c0,-59.74 -48.87,-108.62 -108.62,-108.62l-186.19 0z"/>
 </g>
</svg>
