<svg width="596" height="346" viewBox="0 0 596 346" fill="none" xmlns="http://www.w3.org/2000/svg">
<g filter="url(#filter0_d_2107_4)">
<path fill-rule="evenodd" clip-rule="evenodd" d="M367.455 192.852V169.935C367.455 162.584 373.468 156.571 380.819 156.571H554.994C562.345 156.571 568.358 162.588 568.358 169.935V192.852C568.358 200.2 562.34 206.216 554.994 206.216H380.819C373.471 206.216 367.455 200.204 367.455 192.852Z" fill="url(#paint0_linear_2107_4)"/>
</g>
<g filter="url(#filter1_d_2107_4)">
<path fill-rule="evenodd" clip-rule="evenodd" d="M367.455 36.2811V13.3641C367.455 6.0126 373.468 0 380.819 0H581.846C589.198 0 595.21 6.01875 595.21 13.3641V36.2811C595.21 43.6264 589.191 49.6451 581.846 49.6451H380.819C373.474 49.6451 367.455 43.6325 367.455 36.2811Z" fill="url(#paint1_linear_2107_4)"/>
</g>
<g filter="url(#filter2_d_2107_4)">
<path fill-rule="evenodd" clip-rule="evenodd" d="M312.45 0H296.984C292.458 0 288.002 1.97508 285.329 5.93999L178.326 164.606C174.366 170.478 174.368 170.475 170.408 164.606L63.4022 5.93999C60.7294 1.97261 56.2735 0 51.7474 0H36.2816H13.3695C6.01799 0 0.00292969 6.01506 0.00292969 13.3665V332.234C0.00292969 339.585 6.01799 345.6 13.3695 345.6H36.2816C43.6195 345.6 49.6481 339.573 49.6481 332.234V84.3216C49.6481 80.8083 53.3017 79.798 55.0491 82.3908L163.26 242.844C165.824 246.651 170.064 248.706 174.366 248.714C178.669 248.706 182.908 246.651 185.473 242.844L293.684 82.3908C295.431 79.798 299.085 80.8083 299.085 84.3216V332.234C299.085 339.571 305.113 345.6 312.451 345.6H335.363C342.715 345.6 348.73 339.585 348.73 332.234V13.3665C348.73 6.01506 342.716 0 335.363 0H312.451L312.45 0Z" fill="url(#paint2_linear_2107_4)"/>
</g>
<defs>
<filter id="filter0_d_2107_4" x="363.455" y="156.571" width="208.902" height="57.645" filterUnits="userSpaceOnUse" color-interpolation-filters="sRGB">
<feFlood flood-opacity="0" result="BackgroundImageFix"/>
<feColorMatrix in="SourceAlpha" type="matrix" values="0 0 0 0 0 0 0 0 0 0 0 0 0 0 0 0 0 0 127 0" result="hardAlpha"/>
<feOffset dy="4"/>
<feGaussianBlur stdDeviation="2"/>
<feComposite in2="hardAlpha" operator="out"/>
<feColorMatrix type="matrix" values="0 0 0 0 0 0 0 0 0 0 0 0 0 0 0 0 0 0 0.25 0"/>
<feBlend mode="normal" in2="BackgroundImageFix" result="effect1_dropShadow_2107_4"/>
<feBlend mode="normal" in="SourceGraphic" in2="effect1_dropShadow_2107_4" result="shape"/>
</filter>
<filter id="filter1_d_2107_4" x="363.455" y="0" width="235.755" height="57.645" filterUnits="userSpaceOnUse" color-interpolation-filters="sRGB">
<feFlood flood-opacity="0" result="BackgroundImageFix"/>
<feColorMatrix in="SourceAlpha" type="matrix" values="0 0 0 0 0 0 0 0 0 0 0 0 0 0 0 0 0 0 127 0" result="hardAlpha"/>
<feOffset dy="4"/>
<feGaussianBlur stdDeviation="2"/>
<feComposite in2="hardAlpha" operator="out"/>
<feColorMatrix type="matrix" values="0 0 0 0 0 0 0 0 0 0 0 0 0 0 0 0 0 0 0.25 0"/>
<feBlend mode="normal" in2="BackgroundImageFix" result="effect1_dropShadow_2107_4"/>
<feBlend mode="normal" in="SourceGraphic" in2="effect1_dropShadow_2107_4" result="shape"/>
</filter>
<filter id="filter2_d_2107_4" x="-3.99707" y="0" width="356.727" height="353.6" filterUnits="userSpaceOnUse" color-interpolation-filters="sRGB">
<feFlood flood-opacity="0" result="BackgroundImageFix"/>
<feColorMatrix in="SourceAlpha" type="matrix" values="0 0 0 0 0 0 0 0 0 0 0 0 0 0 0 0 0 0 127 0" result="hardAlpha"/>
<feOffset dy="4"/>
<feGaussianBlur stdDeviation="2"/>
<feComposite in2="hardAlpha" operator="out"/>
<feColorMatrix type="matrix" values="0 0 0 0 0 0 0 0 0 0 0 0 0 0 0 0 0 0 0.25 0"/>
<feBlend mode="normal" in2="BackgroundImageFix" result="effect1_dropShadow_2107_4"/>
<feBlend mode="normal" in="SourceGraphic" in2="effect1_dropShadow_2107_4" result="shape"/>
</filter>
<linearGradient id="paint0_linear_2107_4" x1="374.036" y1="159.085" x2="450.94" y2="279.884" gradientUnits="userSpaceOnUse">
<stop offset="0.0002" stop-color="#2B7FFF"/>
<stop offset="1" stop-color="#009966"/>
</linearGradient>
<linearGradient id="paint1_linear_2107_4" x1="374.916" y1="2.51386" x2="447.391" y2="131.572" gradientUnits="userSpaceOnUse">
<stop offset="0.0002" stop-color="#2B7FFF"/>
<stop offset="1" stop-color="#009966"/>
</linearGradient>
<linearGradient id="paint2_linear_2107_4" x1="11.4261" y1="17.5" x2="412.721" y2="174.674" gradientUnits="userSpaceOnUse">
<stop offset="0.0002" stop-color="#2B7FFF"/>
<stop offset="1" stop-color="#009966"/>
</linearGradient>
</defs>
</svg>
