<svg width="596" height="346" viewBox="0 0 596 346" fill="none" xmlns="http://www.w3.org/2000/svg">
<g filter="url(#filter0_d_2107_4)">
<path fill-rule="evenodd" clip-rule="evenodd" d="M367.455 192.852V169.935C367.455 162.584 373.468 156.571 380.819 156.571H554.994C562.345 156.571 568.358 162.588 568.358 169.935V192.852C568.358 200.2 562.34 206.216 554.994 206.216H380.819C373.471 206.216 367.455 200.204 367.455 192.852Z" fill="#F3F4F6"/>
<path d="M367.955 192.852V169.935C367.955 162.86 373.744 157.071 380.819 157.071H554.994C562.069 157.071 567.858 162.864 567.858 169.935V192.852C567.858 199.924 562.064 205.716 554.994 205.716H380.819C373.747 205.716 367.955 199.928 367.955 192.852Z" stroke="#F3F4F6"/>
</g>
<g filter="url(#filter1_d_2107_4)">
<path fill-rule="evenodd" clip-rule="evenodd" d="M367.455 36.2811V13.3641C367.455 6.0126 373.468 0 380.819 0H581.846C589.198 0 595.21 6.01875 595.21 13.3641V36.2811C595.21 43.6264 589.191 49.6451 581.846 49.6451H380.819C373.474 49.6451 367.455 43.6325 367.455 36.2811Z" fill="#F3F4F6"/>
<path d="M367.955 36.2811V13.3641C367.955 6.28874 373.744 0.5 380.819 0.5H581.846C588.921 0.5 594.71 6.29474 594.71 13.3641V36.2811C594.71 43.3503 588.915 49.1451 581.846 49.1451H380.819C373.75 49.1451 367.955 43.3563 367.955 36.2811Z" stroke="#F3F4F6"/>
</g>
<g filter="url(#filter2_d_2107_4)">
<path fill-rule="evenodd" clip-rule="evenodd" d="M312.45 0H296.984C292.458 0 288.002 1.97508 285.329 5.93999L178.326 164.606C174.366 170.478 174.368 170.475 170.408 164.606L63.4022 5.93999C60.7294 1.97261 56.2735 0 51.7474 0H36.2816H13.3695C6.01799 0 0.00292969 6.01506 0.00292969 13.3665V332.234C0.00292969 339.585 6.01799 345.6 13.3695 345.6H36.2816C43.6195 345.6 49.6481 339.573 49.6481 332.234V84.3216C49.6481 80.8083 53.3017 79.798 55.0491 82.3908L163.26 242.844C165.824 246.651 170.064 248.706 174.366 248.714C178.669 248.706 182.908 246.651 185.473 242.844L293.684 82.3908C295.431 79.798 299.085 80.8083 299.085 84.3216V332.234C299.085 339.571 305.113 345.6 312.451 345.6H335.363C342.715 345.6 348.73 339.585 348.73 332.234V13.3665C348.73 6.01506 342.716 0 335.363 0H312.451L312.45 0Z" fill="#F3F4F6"/>
<path d="M62.9875 6.21936L62.9877 6.21956L169.994 164.885L170.384 164.622L169.994 164.885L170.02 164.923C170.99 166.362 171.742 167.477 172.377 168.23C172.993 168.961 173.621 169.509 174.367 169.509C175.113 169.509 175.741 168.962 176.357 168.231C176.993 167.477 177.747 166.359 178.72 164.916L178.74 164.885L285.744 6.21956C288.311 2.41196 292.599 0.5 296.984 0.5H312.45H312.451H335.363C342.44 0.5 348.23 6.29117 348.23 13.3665V332.234C348.23 339.309 342.439 345.1 335.363 345.1H312.451C305.389 345.1 299.585 339.295 299.585 332.234V84.3216C299.585 82.3777 298.559 81.0341 297.194 80.5908C295.835 80.1496 294.259 80.6429 293.269 82.1112L185.058 242.565L185.058 242.565C182.592 246.225 178.513 248.206 174.366 248.214C170.22 248.206 166.141 246.225 163.674 242.565L163.674 242.565L55.4637 82.1114C55.4637 82.1113 55.4636 82.1113 55.4636 82.1112C54.474 80.6429 52.8974 80.1496 51.5388 80.5908C50.1743 81.0341 49.1481 82.3777 49.1481 84.3216V332.234C49.1481 339.297 43.3434 345.1 36.2816 345.1H13.3695C6.29413 345.1 0.50293 339.309 0.50293 332.234V13.3665C0.50293 6.2912 6.29413 0.5 13.3695 0.5H36.2816H51.7474C56.1324 0.5 60.4209 2.40961 62.9875 6.21936Z" stroke="#F3F4F6"/>
</g>
<defs>
<filter id="filter0_d_2107_4" x="363.455" y="156.571" width="208.902" height="57.645" filterUnits="userSpaceOnUse" color-interpolation-filters="sRGB">
<feFlood flood-opacity="0" result="BackgroundImageFix"/>
<feColorMatrix in="SourceAlpha" type="matrix" values="0 0 0 0 0 0 0 0 0 0 0 0 0 0 0 0 0 0 127 0" result="hardAlpha"/>
<feOffset dy="4"/>
<feGaussianBlur stdDeviation="2"/>
<feComposite in2="hardAlpha" operator="out"/>
<feColorMatrix type="matrix" values="0 0 0 0 0 0 0 0 0 0 0 0 0 0 0 0 0 0 0.25 0"/>
<feBlend mode="normal" in2="BackgroundImageFix" result="effect1_dropShadow_2107_4"/>
<feBlend mode="normal" in="SourceGraphic" in2="effect1_dropShadow_2107_4" result="shape"/>
</filter>
<filter id="filter1_d_2107_4" x="363.455" y="0" width="235.755" height="57.645" filterUnits="userSpaceOnUse" color-interpolation-filters="sRGB">
<feFlood flood-opacity="0" result="BackgroundImageFix"/>
<feColorMatrix in="SourceAlpha" type="matrix" values="0 0 0 0 0 0 0 0 0 0 0 0 0 0 0 0 0 0 127 0" result="hardAlpha"/>
<feOffset dy="4"/>
<feGaussianBlur stdDeviation="2"/>
<feComposite in2="hardAlpha" operator="out"/>
<feColorMatrix type="matrix" values="0 0 0 0 0 0 0 0 0 0 0 0 0 0 0 0 0 0 0.25 0"/>
<feBlend mode="normal" in2="BackgroundImageFix" result="effect1_dropShadow_2107_4"/>
<feBlend mode="normal" in="SourceGraphic" in2="effect1_dropShadow_2107_4" result="shape"/>
</filter>
<filter id="filter2_d_2107_4" x="-3.99707" y="0" width="356.727" height="353.6" filterUnits="userSpaceOnUse" color-interpolation-filters="sRGB">
<feFlood flood-opacity="0" result="BackgroundImageFix"/>
<feColorMatrix in="SourceAlpha" type="matrix" values="0 0 0 0 0 0 0 0 0 0 0 0 0 0 0 0 0 0 127 0" result="hardAlpha"/>
<feOffset dy="4"/>
<feGaussianBlur stdDeviation="2"/>
<feComposite in2="hardAlpha" operator="out"/>
<feColorMatrix type="matrix" values="0 0 0 0 0 0 0 0 0 0 0 0 0 0 0 0 0 0 0.25 0"/>
<feBlend mode="normal" in2="BackgroundImageFix" result="effect1_dropShadow_2107_4"/>
<feBlend mode="normal" in="SourceGraphic" in2="effect1_dropShadow_2107_4" result="shape"/>
</filter>
</defs>
</svg>
